<?xml version="1.0" encoding="utf-8"?>
<!-- Generator: Adobe Illustrator 16.0.0, SVG Export Plug-In . SVG Version: 6.00 Build 0)  -->
<!DOCTYPE svg PUBLIC "-//W3C//DTD SVG 1.1//EN" "http://www.w3.org/Graphics/SVG/1.1/DTD/svg11.dtd">
<svg version="1.1" xmlns="http://www.w3.org/2000/svg" xmlns:xlink="http://www.w3.org/1999/xlink" x="0px" y="0px"
	 width="51.528px" height="64.678px" viewBox="0 0 51.528 64.678" enable-background="new 0 0 51.528 64.678" xml:space="preserve">
<g id="Layer_1">
</g>
<g id="Layer_2">
	<g>
		<path fill="#414042" d="M25.764,0C11.535,0,0,11.457,0,25.59c0,12.912,9.629,23.589,22.144,25.337l-0.017,13.751l19.701-19.082
			c5.912-4.689,9.7-11.908,9.7-20.006C51.528,11.457,39.993,0,25.764,0z M25.941,40.805c-8.479,0-15.353-6.812-15.353-15.215
			s6.874-15.216,15.353-15.216c8.479,0,15.352,6.813,15.352,15.216S34.42,40.805,25.941,40.805z"/>
		<path fill="#414042" d="M25.764,18.673c-3.704,0-6.706,3.019-6.706,6.744c0,3.724,3.002,6.743,6.706,6.743
			s6.706-3.019,6.706-6.743C32.47,21.692,29.468,18.673,25.764,18.673z M27.849,25.292c-1.527,0-2.765-1.22-2.765-2.726
			s1.238-2.726,2.765-2.726s2.766,1.22,2.766,2.726S29.376,25.292,27.849,25.292z"/>
	</g>
	<g>
	</g>
	<g>
	</g>
	<g>
	</g>
	<g>
	</g>
	<g>
	</g>
	<g>
	</g>
</g>
</svg>
